<svg width="359" height="388" viewBox="0 0 359 388" fill="none" xmlns="http://www.w3.org/2000/svg">
<path d="M230 300.368V327C230 350.748 210.748 370 187 370H61C37.2518 370 18 350.748 18 327V194.812C18 174.481 34.4812 158 54.8117 158V158" stroke="black" stroke-width="36" stroke-linecap="round"/>
<rect x="104" y="18" width="237" height="237" rx="25" stroke="black" stroke-width="36"/>
<path d="M151.733 190.882C146.656 195.959 146.656 204.19 151.733 209.267C156.81 214.344 165.041 214.344 170.118 209.267L151.733 190.882ZM295.074 78.9257C295.074 71.746 289.254 65.9257 282.074 65.9257L165.074 65.9257C157.895 65.9257 152.074 71.746 152.074 78.9257C152.074 86.1054 157.895 91.9257 165.074 91.9257H269.074V195.926C269.074 203.105 274.895 208.926 282.074 208.926C289.254 208.926 295.074 203.105 295.074 195.926L295.074 78.9257ZM170.118 209.267L291.267 88.1181L272.882 69.7333L151.733 190.882L170.118 209.267Z" fill="black"/>
</svg>
