<svg xmlns="http://www.w3.org/2000/svg" xmlns:xlink="http://www.w3.org/1999/xlink" viewBox="0,0,256,256" width="50px" height="50px" fill-rule="nonzero"><g transform="translate(15.36,15.36) scale(0.88,0.88)"><g fill="#ffffff" fill-rule="nonzero" stroke="#ffffff" stroke-width="20.48" stroke-linecap="butt" stroke-linejoin="round" stroke-miterlimit="10" stroke-dasharray="" stroke-dashoffset="0" font-family="none" font-weight="none" font-size="none" text-anchor="none" style="mix-blend-mode: normal"><path d="M250.88,128c0,67.48104 -54.87633,122.88 -122.88,122.88c-67.94771,0 -122.88,-54.93229 -122.88,-122.88c0,-31.28249 11.85995,-60.1351 31.43,-81.92h-26.31c-3.69291,0.05223 -7.12787,-1.888 -8.98957,-5.07774c-1.8617,-3.18973 -1.8617,-7.13479 0,-10.32452c1.8617,-3.18973 5.29666,-5.12996 8.98957,-5.07774h51.2c5.65516,0.00057 10.23943,4.58484 10.24,10.24v51.2c0.05223,3.69291 -1.888,7.12787 -5.07774,8.98957c-3.18973,1.8617 -7.13479,1.8617 -10.32452,0c-3.18973,-1.8617 -5.12996,-5.29666 -5.07774,-8.98957v-26.64c-15.92832,18.03583 -25.6,41.79454 -25.6,67.6c0,56.98029 45.41971,102.4 102.4,102.4c56.92433,0 102.4,-45.97704 102.4,-102.4c0,-56.42296 -45.47567,-102.4 -102.4,-102.4c-3.69291,0.05223 -7.12787,-1.888 -8.98957,-5.07774c-1.8617,-3.18973 -1.8617,-7.13479 0,-10.32452c1.8617,-3.18973 5.29666,-5.12996 8.98957,-5.07774c68.00367,0 122.88,55.39896 122.88,122.88z" id="strokeMainSVG"></path></g><g fill="#ffffff" fill-rule="nonzero" stroke="none" stroke-width="1" stroke-linecap="butt" stroke-linejoin="miter" stroke-miterlimit="10" stroke-dasharray="" stroke-dashoffset="0" font-family="none" font-weight="none" font-size="none" text-anchor="none" style="mix-blend-mode: normal"><g transform="scale(5.12,5.12)"><path d="M25,1c-0.72127,-0.0102 -1.39216,0.36875 -1.75578,0.99175c-0.36361,0.623 -0.36361,1.39351 0,2.01651c0.36361,0.623 1.0345,1.00195 1.75578,0.99175c11.11803,0 20,8.97989 20,20c0,11.02011 -8.88197,20 -20,20c-11.12896,0 -20,-8.87104 -20,-20c0,-5.04013 1.889,-9.6805 5,-13.20312v5.20313c-0.0102,0.72127 0.36875,1.39216 0.99175,1.75578c0.623,0.36361 1.39351,0.36361 2.01651,0c0.623,-0.36361 1.00195,-1.0345 0.99175,-1.75578v-10c-0.00011,-1.10452 -0.89548,-1.99989 -2,-2h-10c-0.72127,-0.0102 -1.39216,0.36875 -1.75578,0.99175c-0.36361,0.623 -0.36361,1.39351 0,2.01651c0.36361,0.623 1.0345,1.00195 1.75578,0.99175h5.13867c-3.82228,4.25486 -6.13867,9.89014 -6.13867,16c0,13.27104 10.72896,24 24,24c13.28197,0 24,-10.82011 24,-24c0,-13.17989 -10.71803,-24 -24,-24z"></path></g></g></g></svg>