<svg width="212" height="203" viewBox="0 0 212 203" fill="none" xmlns="http://www.w3.org/2000/svg">
<path d="M113.836 6.85635L143.846 50.6442C145.731 53.3953 148.508 55.4123 151.707 56.3553L202.625 71.3651C209.027 73.2524 211.538 80.9804 207.468 86.2706L175.097 128.343C173.063 130.986 172.003 134.25 172.094 137.584L173.554 190.648C173.737 197.32 167.164 202.096 160.874 199.86L110.858 182.074C107.716 180.957 104.284 180.957 101.142 182.074L51.1256 199.86C44.8365 202.096 38.2627 197.32 38.4462 190.648L39.9057 137.584C39.9974 134.25 38.937 130.986 36.9031 128.343L4.53196 86.2706C0.46156 80.9804 2.97252 73.2524 9.37504 71.3651L60.2933 56.3553C63.4923 55.4123 66.2685 53.3953 68.154 50.6442L98.1637 6.85635C101.937 1.35041 110.063 1.35041 113.836 6.85635Z" stroke="white" stroke-width="5"/>
</svg>
