<svg width="736" height="747" viewBox="0 0 736 747" fill="none" xmlns="http://www.w3.org/2000/svg">
<path d="M80 73H241C254.255 73 265 83.7452 265 97V258C265 271.255 254.255 282 241 282H80C66.7452 282 56 271.255 56 258V97C56 83.7452 66.7452 73 80 73Z"  stroke-width="30"/>
<rect x="512" y="161" width="209" height="209" rx="104.5"  stroke-width="30"/>
<path d="M338.292 107.928C391.161 85.342 444.116 93.8158 466.333 144.751"  stroke-width="30" stroke-linecap="round"/>
<path d="M472.912 103.68L493.192 161.102L432.361 163.951L472.912 103.68Z"  stroke-width="24"/>
<path d="M580.807 438.577C573.85 495.645 539.975 537.22 484.764 530.913"  stroke-width="30" stroke-linecap="round"/>
<path d="M517.005 557.193L457.152 545.959L485.178 491.893L517.005 557.193Z"  stroke-width="24"/>
<path d="M161.758 520.488C112.253 491.255 87.7276 443.564 115.62 395.501"  stroke-width="30" stroke-linecap="round"/>
<path d="M78.6261 414.517L112.892 364.175L151.207 411.509L78.6261 414.517Z"  stroke-width="24"/>
<path d="M324.562 440.801L409.405 605.684C416.938 620.325 406.308 637.75 389.842 637.75H220.158C203.692 637.75 193.062 620.325 200.595 605.684L285.438 440.801C293.626 424.889 316.374 424.889 324.562 440.801Z"  stroke-width="30"/>
</svg>
