<svg width="512" height="511" viewBox="0 0 512 511" fill="none" xmlns="http://www.w3.org/2000/svg">
<path d="M39 15H200C213.255 15 224 25.7452 224 39V200C224 213.255 213.255 224 200 224H39C25.7452 224 15 213.255 15 200V39C15 25.7452 25.7452 15 39 15Z"  stroke-width="30"/>
<rect x="288" y="287" width="209" height="209" rx="104.5"  stroke-width="30"/>
<line x1="224" y1="383" x2="131" y2="383"  stroke-width="30" stroke-linecap="round"/>
<line x1="130" y1="383" x2="130" y2="310"  stroke-width="30" stroke-linecap="round"/>
<path d="M94.1783 330L130.5 281.12L166.822 330H94.1783Z"  stroke-width="24"/>
<line x1="290" y1="126" x2="383" y2="126"  stroke-width="30" stroke-linecap="round"/>
<line x1="384" y1="126" x2="384" y2="199"  stroke-width="30" stroke-linecap="round"/>
<path d="M419.822 179L383.5 227.88L347.178 179L419.822 179Z"  stroke-width="24"/>
</svg>
